Coordinates
version=1
nRows=8
nColumns=36
inDegrees=yes

Units are S.I. units (second, meters, Newtons, ...)
If the header above contains a line with 'inDegrees', this indicates whether rotational values are in degrees (yes) or radians (no).

endheader
time	pelvis_tilt	pelvis_list	pelvis_rotation	pelvis_tx	pelvis_ty	pelvis_tz	hip_flexion_r	hip_adduction_r	hip_rotation_r	knee_angle_r	knee_angle_r_beta	ankle_angle_r	subtalar_angle_r	mtp_angle_r	hip_flexion_l	hip_adduction_l	hip_rotation_l	knee_angle_l	knee_angle_l_beta	ankle_angle_l	subtalar_angle_l	mtp_angle_l	lumbar_extension	lumbar_bending	lumbar_rotation	arm_flex_r	arm_add_r	arm_rot_r	elbow_flex_r	pro_sup_r	arm_flex_l	arm_add_l	arm_rot_l	elbow_flex_l	pro_sup_l
      2.93333330	    -12.21480248	      0.69604619	     -0.37450661	      0.22086249	      1.45308481	     -0.08912439	     11.39725957	     -4.41704546	     -6.43954626	      1.22572954	      0.02139302	    -37.92281232	      1.46101151	     -7.49999987	     13.12312944	    -11.50494546	    -11.04913371	      0.16681572	      0.00291148	    -24.44769152	     -0.16657684	     -7.49999987	      1.10132279	     -1.17429844	     -4.22202679	    150.48262636	    -12.71096796	     56.71807371	     38.60863198	     65.20022857	    154.01141476	    -17.67105819	     65.05341904	     46.34956262	     66.65869311
      2.93750000	    -12.10252240	      0.69406237	     -0.15231424	      0.22105972	      1.45321451	     -0.09675034	     11.36601327	     -4.66556558	     -7.01332641	      1.45843348	      0.02545447	    -38.07701176	      1.21247605	     -7.49999987	     13.26596199	    -11.33677420	    -11.30770514	      0.16493284	      0.00287862	    -24.88854981	     -0.08576413	     -7.49999987	      0.89365334	     -1.11027880	     -4.55383547	    149.98072122	    -13.28007391	     56.45747855	     39.86549740	     65.09373592	    153.83679746	    -17.72360064	     64.63504798	     46.79238245	     66.51320466
      2.94166670	    -11.81946329	     -0.19063110	     -0.14815684	      0.22085826	      1.45385999	     -0.09674557	     11.42226290	     -3.76951526	     -6.27498222	      1.92550826	      0.03360646	    -33.45567970	     -0.26493217	     -7.49999987	     13.14051031	    -12.22764275	    -11.10521742	      0.16075384	      0.00280568	    -24.09555420	      0.32006368	     -7.49999987	      0.48153019	      0.08160984	     -4.30833424	    149.36157815	    -13.52603044	     55.51061330	     41.11621483	     65.45605606	    153.23908761	    -17.59144277	     63.36553551	     47.12229910	     66.74606652
      2.94583330	    -11.70037566	     -0.07079646	     -0.29854409	      0.21687492	      1.45597836	     -0.09997447	     11.53754180	     -4.24909254	     -7.08646351	      2.13656999	      0.03729018	    -34.58643257	      0.09257968	     -7.49999987	     13.15037934	    -11.92646706	    -11.35612204	      0.16665560	      0.00290869	    -24.96027229	      0.20591117	     -7.49999987	      0.38093692	     -0.04289447	     -4.09496314	    147.88727650	    -14.11502923	     53.34851002	     42.42857745	     70.71185427	    152.16224909	    -17.27999742	     61.62320269	     47.26385062	     71.48183417
      2.95000000	    -11.50199164	     -0.12321337	     -0.46901682	      0.22057849	      1.44252116	     -0.09752754	     11.41054424	     -4.28165616	     -7.27735012	      2.36271711	      0.04123719	    -35.32601834	      0.80754738	     -7.49999987	     12.94321816	    -11.88355294	    -11.56734424	      0.16640483	      0.00290431	    -24.65568436	     -0.19425363	     -7.49999987	      0.28641862	      0.05125377	     -4.04943430	    147.61332717	    -14.14514343	     53.35910712	     42.71667942	     69.77451597	    152.18813130	    -17.15650605	     61.82723416	     46.76613482	     70.42801162
      2.95416670	    -11.54341912	      0.25015631	     -0.36734961	      0.21670530	      1.43904051	     -0.10106776	     11.72679680	     -4.98006823	     -7.33210376	      2.56971463	      0.04484998	    -36.30030505	      0.93246592	     -7.49999987	     13.24724770	    -11.20117688	    -11.91421831	      0.18052515	      0.00315076	    -25.26970115	     -1.49165028	     -7.49999987	      0.29276561	     -0.28020032	     -4.18334223	    147.33522097	    -14.60312137	     53.48892913	     43.36085383	     68.57170486	    151.88127910	    -17.52983633	     61.87444528	     46.97953099	     69.09413126
      2.95833330	    -11.42175968	      0.44886968	     -0.32136796	      0.21666805	      1.43983889	     -0.10120162	     11.90613097	     -5.49588560	     -7.26800740	      2.66967871	      0.04659468	    -37.26989984	      1.63084535	     -7.49999987	     13.42798331	    -10.86759542	    -12.03182601	      0.19036685	      0.00332253	    -25.66239290	     -1.66671512	     -7.49999987	      0.04539850	     -0.37674778	     -4.33276857	    147.24245987	    -14.83460816	     53.61453803	     44.00081559	     68.50372264	    151.56654094	    -18.03076526	     61.29134536	     47.63001161	     69.03559832
      2.96250000	    -11.21566699	      0.58810576	     -0.31784761	      0.21777197	      1.43836262	     -0.09166588	     11.79534912	     -5.52366252	     -6.84008067	      2.45812587	      0.04290239	    -37.51218254	      2.45882612	     -7.49999987	     13.44743542	    -11.04518081	    -12.09268693	      0.21068399	      0.00367713	    -26.34584557	     -1.40851526	     -7.49999987	     -0.19027730	     -0.62710138	     -4.08431143	    146.82434987	    -14.92810615	     53.31647354	     44.95950084	     68.21916031	    150.78842501	    -18.61956238	     60.47648192	     48.97086119	     68.77895649
